<svg width="1024" height="1024" viewBox="0 0 1024 1024" fill="none" xmlns="http://www.w3.org/2000/svg">
<rect width="1024" height="1024" fill="#03471C"/>
<path d="M677.722 384.095C677.722 384.095 684.472 382.878 711.487 410.934C711.487 410.934 692.497 337.509 625.385 321.655C625.385 321.655 656.406 334.098 667.596 361.418C667.596 361.418 628.34 322.391 583.819 313.119C583.819 313.119 607.458 301.653 649.235 318.98C649.235 318.98 621.17 282.147 534.214 279.712C534.214 279.712 462.677 275.083 395.146 324.599C395.146 324.599 382.695 346.314 361.59 348.508C361.59 348.508 329.519 379.976 251.638 424.622C251.638 424.622 214.497 480.48 269.788 496.334C269.788 496.334 263.038 484.868 266.203 485.605C266.203 485.605 269.158 490.97 279.494 493.404C279.494 493.404 274.845 480.225 277.8 481.457C277.8 481.457 287.085 490.97 292.364 490.488C292.364 490.488 288.779 480.24 290.67 480.24C290.67 480.24 301.216 485.364 303.751 488.294C303.751 488.294 305.445 477.564 303.751 476.828C303.751 476.828 311.565 483.665 318.106 484.883C318.106 484.883 315.361 476.106 318.106 474.634C318.106 474.634 323.806 479.022 332.25 480.735L331.2 470.005L344.491 473.657L343.44 463.168C343.44 463.168 357.584 469.51 359.055 467.556C359.055 467.556 354.406 457.308 356.31 457.308L369.391 460.478C369.391 460.478 365.386 449.989 368.13 449.749C368.13 449.749 378.256 453.401 383.116 452.679C383.116 452.679 379.399 444.723 381.198 443.874C381.198 443.874 391.6 445.587 395.763 448.262L465.619 430.455C467.064 432.323 396.511 453.004 397.05 456.09L386.504 453.16L387.555 464.626L378.059 460.238L379.753 472.185L370.678 466.579L372.149 479.022C372.149 479.022 362.444 476.333 362.864 472.44L362.444 486.1C362.444 486.1 354.853 482.448 354.209 479.999L353.999 492.201C353.999 492.201 344.294 488.294 344.294 485.859V498.543L335.639 492.937L334.798 503.186C334.798 503.186 328.048 502.704 325.933 497.821L325.513 509.287C325.513 509.287 316.858 507.574 316.438 501.968L316.858 515.629C316.858 515.629 306.522 509.527 306.312 506.116L306.732 517.823C306.732 517.823 296.607 515.629 296.817 512.698L296.607 524.405L291.957 526.118C291.957 526.118 301.663 556.128 340.288 549.786C340.288 549.786 392.204 510.518 442.859 501.246C442.859 501.246 483.375 497.34 505.754 485.392C505.754 485.392 563.79 462.22 572.655 472.949C572.655 472.949 582.571 466.848 573.916 449.281C573.916 449.281 616.126 480.749 612.541 561.252C612.541 561.252 633.646 510.518 609.166 464.654C609.166 464.654 673.69 504.615 673.69 599.019C673.69 599.019 692.234 549.347 688.609 499.519C687.033 507.517 681.281 513.463 674.412 513.463C666.322 513.463 659.768 505.252 659.768 495.117C659.768 484.982 666.322 476.771 674.412 476.771C679.77 476.771 684.459 480.395 687.007 485.803C683.146 462.106 673.335 439.415 653.057 423.207C653.057 423.207 645.243 375.149 636.811 367.59C636.811 367.59 649.669 376.663 664.982 395.179C691.42 427.142 707.311 468.83 711.868 512.741C714.363 536.819 714.101 569.49 711.356 582.57C711.356 582.57 752.24 467.344 677.748 384.166L677.722 384.095Z" fill="#088B38"/>
<path d="M712.354 412.533C712.354 412.533 746.553 433.767 778.086 570.311L748.576 561.422C748.576 561.422 755.471 618.256 724.515 700.939L710.489 681.928C710.489 681.928 666.821 775.977 481.76 735.195C481.76 735.195 657.299 771.589 718.579 631.973C718.579 631.973 770.521 537.584 712.341 412.548L712.354 412.533Z" fill="#088B38"/>
<path d="M239.424 465.886C239.424 465.886 239.385 461.087 276.736 436.046L382.853 365.58C382.853 365.58 394.016 366.217 408.161 342.379C408.161 342.379 461.456 301.738 508.657 304.498C508.657 304.498 469.9 305.376 454.167 326.326C454.167 326.326 469.244 320.99 481.103 329.398L479.514 333.998C479.514 333.998 457.45 326.227 447.994 344.403C447.994 344.403 477.412 334.395 478.411 344.445C478.411 344.445 480.131 353.165 467.681 351.608C467.681 351.608 476.178 346.47 469.572 345.705C469.572 345.705 453.615 345.875 450.213 352.471C450.213 352.471 462.204 355.996 451.409 382C451.409 382 454.495 362.083 447.114 360.682C447.114 360.682 437.684 391.512 420.795 384.237C420.795 384.237 420.033 394.981 440.797 383.288C440.797 383.288 433.613 400.077 408.686 396.623C408.686 396.623 392.112 393.239 382.511 394.188C382.511 394.188 328.363 405.427 239.424 465.886Z" fill="url(#paint0_linear_1_228)"/>
<defs>
<linearGradient id="paint0_linear_1_228" x1="499.464" y1="439.887" x2="262.278" y2="369.507" gradientUnits="userSpaceOnUse">
<stop offset="0.16" stop-color="#79BB68"/>
<stop offset="0.27" stop-color="#7DBD6D"/>
<stop offset="0.42" stop-color="#8AC47C"/>
<stop offset="0.57" stop-color="#A1CF95"/>
<stop offset="0.74" stop-color="#BFDEB7"/>
<stop offset="0.91" stop-color="#E6F2E3"/>
<stop offset="1" stop-color="white"/>
</linearGradient>
</defs>
</svg>
