<svg width="1024" height="1024" viewBox="0 0 1024 1024" fill="none" xmlns="http://www.w3.org/2000/svg">
<rect width="1024" height="1024" fill="#03471C"/>
<path d="M692.496 365.864C692.496 365.864 699.888 364.488 729.467 396.2C729.467 396.2 708.674 313.208 635.193 295.288C635.193 295.288 669.158 309.352 681.41 340.232C681.41 340.232 638.429 296.12 589.682 285.64C589.682 285.64 615.565 272.68 661.307 292.264C661.307 292.264 630.578 250.632 535.37 247.88C535.37 247.88 457.043 242.648 383.103 298.616C383.103 298.616 369.471 323.16 346.363 325.64C346.363 325.64 311.248 361.208 225.976 411.672C225.976 411.672 185.31 474.808 245.849 492.728C245.849 492.728 238.458 479.768 241.923 480.6C241.923 480.6 245.159 486.664 256.476 489.416C256.476 489.416 251.385 474.52 254.621 475.912C254.621 475.912 264.787 486.664 270.568 486.12C270.568 486.12 266.642 474.536 268.713 474.536C268.713 474.536 280.26 480.328 283.035 483.64C283.035 483.64 284.89 471.512 283.035 470.68C283.035 470.68 291.591 478.408 298.752 479.784C298.752 479.784 295.746 469.864 298.752 468.2C298.752 468.2 304.993 473.16 314.239 475.096L313.088 462.968L327.641 467.096L326.49 455.24C326.49 455.24 341.977 462.408 343.588 460.2C343.588 460.2 338.497 448.616 340.582 448.616L354.905 452.2C354.905 452.2 350.519 440.344 353.524 440.072C353.524 440.072 364.611 444.2 369.931 443.384C369.931 443.384 365.862 434.392 367.832 433.432C367.832 433.432 379.221 435.368 383.779 438.392L460.264 418.264C461.846 420.376 384.599 443.752 385.188 447.24L373.641 443.928L374.792 456.888L364.395 451.928L366.25 465.432L356.314 459.096L357.924 473.16C357.924 473.16 347.298 470.12 347.758 465.72L347.298 481.16C347.298 481.16 338.986 477.032 338.282 474.264L338.052 488.056C338.052 488.056 327.425 483.64 327.425 480.888V495.224L317.949 488.888L317.028 500.472C317.028 500.472 309.637 499.928 307.322 494.408L306.862 507.368C306.862 507.368 297.386 505.432 296.926 499.096L297.386 514.536C297.386 514.536 286.069 507.64 285.839 503.784L286.299 517.016C286.299 517.016 275.212 514.536 275.442 511.224L275.212 524.456L270.122 526.392C270.122 526.392 280.748 560.312 323.039 553.144C323.039 553.144 379.882 508.76 435.344 498.28C435.344 498.28 479.706 493.864 504.209 480.36C504.209 480.36 567.753 454.168 577.459 466.296C577.459 466.296 588.316 459.4 578.839 439.544C578.839 439.544 625.056 475.112 621.13 566.104C621.13 566.104 644.238 508.76 617.434 456.92C617.434 456.92 688.082 502.088 688.082 608.792C688.082 608.792 708.386 552.648 704.417 496.328C702.692 505.368 696.393 512.088 688.873 512.088C680.015 512.088 672.839 502.808 672.839 491.352C672.839 479.896 680.015 470.616 688.873 470.616C694.74 470.616 699.873 474.712 702.663 480.824C698.435 454.04 687.694 428.392 665.491 410.072C665.491 410.072 656.935 355.752 647.704 347.208C647.704 347.208 661.781 357.464 678.548 378.392C707.494 414.52 724.894 461.64 729.884 511.272C732.616 538.488 732.328 575.416 729.323 590.2C729.323 590.2 774.087 459.96 692.525 365.944L692.496 365.864Z" fill="#088B38"/>
<path d="M730.416 398.008C730.416 398.008 767.86 422.008 802.386 576.344L770.075 566.296C770.075 566.296 777.624 630.536 743.731 723.992L728.374 702.504C728.374 702.504 680.561 808.808 477.937 762.712C477.937 762.712 670.136 803.848 737.232 646.04C737.232 646.04 794.103 539.352 730.401 398.024L730.416 398.008Z" fill="#088B38"/>
<path d="M212.603 458.312C212.603 458.312 212.56 452.888 253.456 424.584L369.644 344.936C369.644 344.936 381.867 345.656 397.353 318.712C397.353 318.712 455.706 272.776 507.387 275.896C507.387 275.896 464.952 276.888 447.726 300.568C447.726 300.568 464.233 294.536 477.218 304.04L475.478 309.24C475.478 309.24 451.32 300.456 440.967 321C440.967 321 473.178 309.688 474.27 321.048C474.27 321.048 476.154 330.904 462.522 329.144C462.522 329.144 471.826 323.336 464.593 322.472C464.593 322.472 447.122 322.664 443.397 330.12C443.397 330.12 456.526 334.104 444.706 363.496C444.706 363.496 448.085 340.984 440.004 339.4C440.004 339.4 429.679 374.248 411.187 366.024C411.187 366.024 410.353 378.168 433.087 364.952C433.087 364.952 425.221 383.928 397.929 380.024C397.929 380.024 379.782 376.2 369.27 377.272C369.27 377.272 309.983 389.976 212.603 458.312Z" fill="url(#paint0_linear_1_196)"/>
<defs>
<linearGradient id="paint0_linear_1_196" x1="497.322" y1="428.926" x2="236.324" y2="353.905" gradientUnits="userSpaceOnUse">
<stop offset="0.16" stop-color="#79BB68"/>
<stop offset="0.27" stop-color="#7DBD6D"/>
<stop offset="0.42" stop-color="#8AC47C"/>
<stop offset="0.57" stop-color="#A1CF95"/>
<stop offset="0.74" stop-color="#BFDEB7"/>
<stop offset="0.91" stop-color="#E6F2E3"/>
<stop offset="1" stop-color="white"/>
</linearGradient>
</defs>
</svg>
