<svg width="1284" height="2778" viewBox="0 0 1284 2778" fill="none" xmlns="http://www.w3.org/2000/svg">
<rect width="1284" height="2778" fill="#03471C"/>
<path d="M726.51 1322.99C726.51 1322.99 729.962 1322.37 743.778 1336.68C743.778 1336.68 734.066 1299.22 699.744 1291.13C699.744 1291.13 715.608 1297.48 721.331 1311.42C721.331 1311.42 701.255 1291.51 678.485 1286.78C678.485 1286.78 690.575 1280.93 711.941 1289.77C711.941 1289.77 697.588 1270.97 653.116 1269.73C653.116 1269.73 616.531 1267.37 581.994 1292.63C581.994 1292.63 575.626 1303.71 564.832 1304.83C564.832 1304.83 548.43 1320.89 508.6 1343.66C508.6 1343.66 489.606 1372.16 517.883 1380.25C517.883 1380.25 514.431 1374.4 516.049 1374.78C516.049 1374.78 517.561 1377.52 522.847 1378.76C522.847 1378.76 520.469 1372.03 521.98 1372.66C521.98 1372.66 526.729 1377.52 529.429 1377.27C529.429 1377.27 527.595 1372.04 528.562 1372.04C528.562 1372.04 533.956 1374.66 535.252 1376.15C535.252 1376.15 536.119 1370.68 535.252 1370.3C535.252 1370.3 539.249 1373.79 542.594 1374.41C542.594 1374.41 541.19 1369.93 542.594 1369.18C542.594 1369.18 545.509 1371.42 549.827 1372.29L549.29 1366.82L556.087 1368.68L555.55 1363.33C555.55 1363.33 562.784 1366.57 563.536 1365.57C563.536 1365.57 561.158 1360.34 562.132 1360.34L568.822 1361.96C568.822 1361.96 566.774 1356.61 568.177 1356.48C568.177 1356.48 573.356 1358.35 575.841 1357.98C575.841 1357.98 573.94 1353.92 574.86 1353.49C574.86 1353.49 580.18 1354.36 582.309 1355.73L618.035 1346.64C618.774 1347.59 582.692 1358.15 582.968 1359.72L577.574 1358.22L578.111 1364.07L573.255 1361.84L574.122 1367.93L569.48 1365.07L570.233 1371.42C570.233 1371.42 565.269 1370.05 565.484 1368.06L565.269 1375.03C565.269 1375.03 561.387 1373.17 561.058 1371.92L560.95 1378.14C560.95 1378.14 555.987 1376.15 555.987 1374.91V1381.38L551.56 1378.52L551.13 1383.75C551.13 1383.75 547.678 1383.5 546.597 1381.01L546.382 1386.86C546.382 1386.86 541.955 1385.99 541.741 1383.13L541.955 1390.1C541.955 1390.1 536.669 1386.98 536.562 1385.24L536.777 1391.22C536.777 1391.22 531.598 1390.1 531.706 1388.6L531.598 1394.57L529.221 1395.45C529.221 1395.45 534.184 1410.76 553.938 1407.52C553.938 1407.52 580.489 1387.49 606.395 1382.76C606.395 1382.76 627.116 1380.77 638.561 1374.67C638.561 1374.67 668.242 1362.85 672.776 1368.32C672.776 1368.32 677.847 1365.21 673.421 1356.25C673.421 1356.25 695.008 1372.3 693.175 1413.37C693.175 1413.37 703.968 1387.49 691.449 1364.09C691.449 1364.09 724.448 1384.48 724.448 1432.64C724.448 1432.64 733.932 1407.3 732.078 1381.88C731.272 1385.96 728.33 1388.99 724.817 1388.99C720.68 1388.99 717.328 1384.8 717.328 1379.63C717.328 1374.46 720.68 1370.27 724.817 1370.27C727.557 1370.27 729.955 1372.12 731.258 1374.88C729.284 1362.79 724.266 1351.21 713.896 1342.94C713.896 1342.94 709.899 1318.42 705.587 1314.57C705.587 1314.57 712.163 1319.2 719.994 1328.64C733.515 1344.95 741.642 1366.22 743.973 1388.62C745.249 1400.91 745.115 1417.58 743.711 1424.25C743.711 1424.25 764.62 1365.46 726.523 1323.02L726.51 1322.99Z" fill="#088B38"/>
<path d="M744.222 1337.5C744.222 1337.5 761.712 1348.33 777.838 1418L762.746 1413.46C762.746 1413.46 766.272 1442.46 750.441 1484.64L743.268 1474.94C743.268 1474.94 720.935 1522.93 626.29 1502.12C626.29 1502.12 716.065 1520.69 747.405 1449.46C747.405 1449.46 773.97 1401.3 744.215 1337.5L744.222 1337.5Z" fill="#088B38"/>
<path d="M502.354 1364.72C502.354 1364.72 502.334 1362.27 521.436 1349.49L575.707 1313.54C575.707 1313.54 581.416 1313.87 588.65 1301.7C588.65 1301.7 615.906 1280.97 640.046 1282.38C640.046 1282.38 620.225 1282.82 612.178 1293.51C612.178 1293.51 619.889 1290.79 625.954 1295.08L625.142 1297.43C625.142 1297.43 613.858 1293.46 609.022 1302.74C609.022 1302.74 624.067 1297.63 624.577 1302.76C624.577 1302.76 625.457 1307.21 619.09 1306.41C619.09 1306.41 623.436 1303.79 620.057 1303.4C620.057 1303.4 611.896 1303.49 610.157 1306.85C610.157 1306.85 616.289 1308.65 610.768 1321.92C610.768 1321.92 612.346 1311.76 608.572 1311.04C608.572 1311.04 603.749 1326.77 595.111 1323.06C595.111 1323.06 594.722 1328.54 605.341 1322.58C605.341 1322.58 601.667 1331.14 588.919 1329.38C588.919 1329.38 580.442 1327.65 575.532 1328.14C575.532 1328.14 547.839 1333.87 502.354 1364.72Z" fill="url(#paint0_linear_1_211)"/>
<defs>
<linearGradient id="paint0_linear_1_211" x1="635.344" y1="1351.45" x2="514.089" y2="1315.39" gradientUnits="userSpaceOnUse">
<stop offset="0.16" stop-color="#79BB68"/>
<stop offset="0.27" stop-color="#7DBD6D"/>
<stop offset="0.42" stop-color="#8AC47C"/>
<stop offset="0.57" stop-color="#A1CF95"/>
<stop offset="0.74" stop-color="#BFDEB7"/>
<stop offset="0.91" stop-color="#E6F2E3"/>
<stop offset="1" stop-color="white"/>
</linearGradient>
</defs>
</svg>
