<?xml version="1.0" encoding="UTF-8"?>
<svg id="Capa_1" xmlns="http://www.w3.org/2000/svg" version="1.1" xmlns:xlink="http://www.w3.org/1999/xlink" viewBox="0 0 835.38 450">
  <!-- Generator: Adobe Illustrator 29.3.0, SVG Export Plug-In . SVG Version: 2.1.0 Build 2)  -->
  <defs>
    <style>
      .st0 {
        fill: url(#Degradado_sin_nombre_11);
      }

      .st1 {
        font-family: Barlow-Regular, Barlow;
        font-size: 62.26px;
      }

      .st1, .st2 {
        fill: #1d1d1b;
      }

      .st2 {
        font-family: BebasNeue-Regular, 'Bebas Neue';
        font-size: 193.14px;
      }

      .st3 {
        fill: #088b38;
      }
    </style>
    <linearGradient id="Degradado_sin_nombre_11" data-name="Degradado sin nombre 11" x1="179.6" y1="149.79" x2="-35.69" y2="66.08" gradientTransform="translate(77.22 42.74) rotate(-1.53) scale(.8 .89)" gradientUnits="userSpaceOnUse">
      <stop offset=".16" stop-color="#79bb68"/>
      <stop offset=".27" stop-color="#7dbd6d"/>
      <stop offset=".42" stop-color="#8ac47c"/>
      <stop offset=".57" stop-color="#a1cf95"/>
      <stop offset=".74" stop-color="#bfdeb7"/>
      <stop offset=".91" stop-color="#e6f2e3"/>
      <stop offset="1" stop-color="#fff"/>
    </linearGradient>
  </defs>
  <path class="st3" d="M360.09,132.82s5.14-.86,25.71,18.96c0,0-14.46-51.87-65.56-63.07,0,0,23.62,8.79,32.14,28.09,0,0-29.89-27.57-63.79-34.12,0,0,18-8.1,49.81,4.14,0,0-21.37-26.02-87.58-27.74,0,0-54.47-3.27-105.89,31.71,0,0-9.48,15.34-25.55,16.89,0,0-24.42,22.23-83.72,53.77,0,0-28.28,39.46,13.82,50.66,0,0-5.14-8.1-2.73-7.58,0,0,2.25,3.79,10.12,5.51,0,0-3.54-9.31-1.29-8.44,0,0,7.07,6.72,11.09,6.38,0,0-2.73-7.24-1.29-7.24,0,0,8.03,3.62,9.96,5.69,0,0,1.29-7.58,0-8.1,0,0,5.95,4.83,10.93,5.69,0,0-2.09-6.2,0-7.24,0,0,4.34,3.1,10.77,4.31l-.8-7.58,10.12,2.58-.8-7.41s10.77,4.48,11.89,3.1c0,0-3.54-7.24-2.09-7.24l9.96,2.24s-3.05-7.41-.96-7.58c0,0,7.71,2.58,11.41,2.07,0,0-2.83-5.62-1.46-6.22,0,0,7.92,1.21,11.09,3.1l53.19-12.58c1.1,1.32-52.62,15.93-52.21,18.11l-8.03-2.07.8,8.1-7.23-3.1,1.29,8.44-6.91-3.96,1.12,8.79s-7.39-1.9-7.07-4.65l-.32,9.65s-5.78-2.58-6.27-4.31l-.16,8.62s-7.39-2.76-7.39-4.48v8.96l-6.59-3.96-.64,7.24s-5.14-.34-6.75-3.79l-.32,8.1s-6.59-1.21-6.91-5.17l.32,9.65s-7.87-4.31-8.03-6.72l.32,8.27s-7.71-1.55-7.55-3.62l-.16,8.27-3.54,1.21s7.39,21.2,36.8,16.72c0,0,39.53-27.74,78.1-34.29,0,0,30.85-2.76,47.89-11.2,0,0,44.19-16.37,50.94-8.79,0,0,7.55-4.31.96-16.72,0,0,32.14,22.23,29.41,79.1,0,0,16.07-35.84-2.57-68.24,0,0,49.13,28.23,49.13,94.92,0,0,14.12-35.09,11.36-70.29-1.2,5.65-5.58,9.85-10.81,9.85-6.16,0-11.15-5.8-11.15-12.96s4.99-12.96,11.15-12.96c4.08,0,7.65,2.56,9.59,6.38-2.94-16.74-10.41-32.77-25.85-44.22,0,0-5.95-33.95-12.37-39.29,0,0,9.79,6.41,21.45,19.49,20.13,22.58,32.23,52.03,35.7,83.05,1.9,17.01,1.7,40.09-.39,49.33,0,0,31.13-81.4-25.59-140.16Z"/>
  <path class="st3" d="M386.45,152.91s26.04,15,50.05,111.46l-22.47-6.28s5.25,40.15-18.32,98.56l-10.68-13.43s-33.25,66.44-174.16,37.63c0,0,133.66,25.71,180.32-72.92,0,0,39.55-66.68-4.75-155.01Z"/>
  <path class="st0" d="M26.36,190.61s-.03-3.39,28.41-21.08l80.8-49.78s8.5.45,19.27-16.39c0,0,40.58-28.71,76.52-26.76,0,0-29.51.62-41.49,15.42,0,0,11.48-3.77,20.51,2.17l-1.21,3.25s-16.8-5.49-24,7.35c0,0,22.4-7.07,23.16.03,0,0,1.31,6.16-8.17,5.06,0,0,6.47-3.63,1.44-4.17,0,0-12.15.12-14.74,4.78,0,0,9.13,2.49.91,20.86,0,0,2.35-14.07-3.27-15.06,0,0-7.18,21.78-20.04,16.64,0,0-.58,7.59,15.23-.67,0,0-5.47,11.86-24.45,9.42,0,0-12.62-2.39-19.93-1.72,0,0-41.23,7.94-108.95,50.65Z"/>
  <g>
    <text class="st2" transform="translate(445.84 320.27) scale(1.05 1)"><tspan x="0" y="0">INo’s</tspan></text>
    <text class="st1" transform="translate(447.15 391.01) scale(1.32 1)"><tspan x="0" y="0">PEDIDOS</tspan></text>
  </g>
</svg>